<svg width="124" height="96" viewBox="0 0 124 96" fill="none" xmlns="http://www.w3.org/2000/svg">
<g filter="url(#filter0_i_375_131)">
<path d="M73.1387 27.934H69.3099L69.2892 26.3257H72.7651C73.3393 26.3257 73.8408 26.2288 74.2697 26.0352C74.6985 25.8415 75.0306 25.5648 75.2657 25.2051C75.5079 24.8385 75.6289 24.4027 75.6289 23.8977C75.6289 23.3443 75.5217 22.8947 75.3073 22.5488C75.0997 22.196 74.7781 21.9401 74.3423 21.781C73.9134 21.615 73.3669 21.532 72.7029 21.532H69.7561V35H67.7535V19.8926H72.7029C73.4776 19.8926 74.1694 19.9721 74.7781 20.1312C75.3868 20.2834 75.9021 20.5255 76.3241 20.8575C76.753 21.1827 77.0781 21.5977 77.2994 22.1027C77.5208 22.6076 77.6315 23.2129 77.6315 23.9185C77.6315 24.541 77.4724 25.1048 77.1542 25.6097C76.836 26.1078 76.3933 26.5159 75.826 26.8341C75.2657 27.1523 74.6086 27.3564 73.8546 27.4463L73.1387 27.934ZM73.0453 35H68.5214L69.6523 33.371H73.0453C73.6817 33.371 74.2212 33.2603 74.6639 33.0389C75.1136 32.8176 75.456 32.5063 75.6912 32.1051C75.9264 31.697 76.0439 31.2162 76.0439 30.6628C76.0439 30.1025 75.9436 29.6183 75.743 29.2102C75.5424 28.8021 75.2277 28.4873 74.7988 28.266C74.37 28.0446 73.8166 27.934 73.1387 27.934H70.2853L70.306 26.3257H74.2074L74.6328 26.9067C75.3591 26.969 75.9748 27.1765 76.4797 27.5293C76.9847 27.8752 77.3686 28.3179 77.6315 28.8574C77.9012 29.397 78.0361 29.9919 78.0361 30.6421C78.0361 31.5828 77.8286 32.3783 77.4136 33.0286C77.0055 33.6719 76.4279 34.163 75.6808 34.502C74.9337 34.834 74.0552 35 73.0453 35ZM90.5911 33.371V35H82.5912V33.371H90.5911ZM82.9958 19.8926V35H80.9933V19.8926H82.9958ZM89.5327 26.3879V28.017H82.5912V26.3879H89.5327ZM90.4873 19.8926V21.532H82.5912V19.8926H90.4873ZM98.8607 19.8926V35H96.8893V19.8926H98.8607ZM103.717 19.8926V21.532H92.0437V19.8926H103.717ZM110.72 21.2311L105.719 35H103.675L109.434 19.8926H110.752L110.72 21.2311ZM114.912 35L109.901 21.2311L109.87 19.8926H111.187L116.967 35H114.912ZM114.653 29.4073V31.0468H106.165V29.4073H114.653Z" fill="white"/>
<path fill-rule="evenodd" clip-rule="evenodd" d="M73.2592 8.15854C75.3397 12.0979 76.389 16.1729 74.9326 20.5781C75.005 20.0534 75.1 19.5288 75.1452 19.0041C75.2824 16.897 74.9822 14.7843 74.2633 12.7989C73.7658 11.3109 73.1326 9.87266 72.5537 8.41181C72.5537 8.38015 72.5175 8.35754 72.4632 8.28065C72.2552 8.61533 72.0381 8.92289 71.8617 9.24401C71.4094 10.0943 70.8983 10.931 70.5048 11.8175C69.7134 13.7035 69.9531 15.5804 70.8214 17.3805C71.3325 18.4298 71.9566 19.4248 72.513 20.4514C72.8612 21.0982 73.1959 21.754 73.4989 22.4234C74.0702 23.5789 74.3483 24.8572 74.3085 26.1456C74.6387 25.7793 74.9779 25.4174 75.2945 25.0421C76.81 23.3113 77.9524 21.2867 78.6504 19.0946C79.2959 17.0976 79.2088 14.936 78.4048 12.9974C77.6009 11.0587 76.1326 9.46992 74.2633 8.51583C73.9602 8.35754 73.6346 8.23542 73.3225 8.09521L73.2592 8.15854Z" fill="#AAE6B9"/>
<path fill-rule="evenodd" clip-rule="evenodd" d="M60.3926 9.97255C60.9579 10.2982 61.4419 10.6057 61.9484 10.8771C63.1136 11.5195 64.3937 11.9267 65.7159 12.0756C68.1763 12.3063 69.7547 11.4334 70.8854 9.23986C71.0347 8.94136 71.1749 8.63833 71.3106 8.33531C71.3648 8.21771 71.392 8.08655 71.4689 7.85589C69.3929 9.75093 67.127 10.8138 64.3229 10.1625C67.127 10.3932 69.2527 9.068 71.1839 7.24532C69.6552 5.8523 68.1944 5.62616 66.4938 6.57595C65.9069 6.9175 65.3447 7.29986 64.8113 7.72021C63.7484 8.60688 62.5373 9.29894 61.2338 9.7645C60.9851 9.84139 60.7408 9.88662 60.3926 9.97255Z" fill="#AAE6B9"/>
<path fill-rule="evenodd" clip-rule="evenodd" d="M58.3483 56.6794C52.437 53.5994 47.6836 49.4701 45.7297 42.808C46.087 43.5181 46.4127 44.2418 46.8107 44.9247C48.4229 47.636 50.5787 49.9843 53.1425 51.8219C55.024 53.2285 57.0276 54.4632 58.9769 55.7748C59.048 55.8092 59.1222 55.8364 59.1985 55.8563C59.1714 55.2638 59.1985 54.7029 59.1171 54.1557C58.9634 52.7174 58.8774 51.2611 58.5834 49.85C57.9548 46.8514 56.0688 44.7438 53.4682 43.2739C51.9485 42.41 50.3339 41.7181 48.7735 40.922C47.7966 40.42 46.8242 39.8954 45.8835 39.33C44.1954 38.3946 42.7658 37.055 41.7225 35.4314C41.6276 36.1686 41.519 36.8968 41.4466 37.6295C41.0461 41.0492 41.354 44.5147 42.3512 47.8102C43.2577 50.8188 45.2065 53.406 47.8481 55.1077C50.4896 56.8093 53.6511 57.5141 56.7653 57.0955C57.2718 57.0367 57.7784 56.9101 58.2804 56.8151L58.3483 56.6794Z" fill="#AAE6B9"/>
<path fill-rule="evenodd" clip-rule="evenodd" d="M82.9604 48.1945C83.0553 50.189 82.4719 52.4052 81.6533 54.5761C81.5081 54.9457 81.3358 55.3039 81.1377 55.648C81.097 55.7204 80.9522 55.7385 80.8573 55.7837C80.8231 55.7145 80.8031 55.6391 80.7985 55.5621C81.0517 53.1017 79.6587 51.4328 78.0215 49.9267C76.1624 48.304 74.0803 46.9561 71.8388 45.924C65.5311 42.8244 59.2218 39.7173 52.911 36.6026C51.5904 35.9558 50.2743 35.3046 48.9672 34.6261C44.7022 32.4145 42.2961 28.846 41.5589 24.1604C40.7041 18.7331 42.4996 13.9887 45.7289 9.68754C45.8224 9.55799 45.9236 9.43415 46.0319 9.31668L47.2304 8.13623C47.0405 8.58851 46.8324 9.04079 46.6515 9.52925C46.3173 10.4253 46.164 11.3787 46.2005 12.3343C46.237 13.2899 46.4625 14.2289 46.8641 15.0968C47.945 17.7019 49.7813 19.71 51.9567 21.4287C53.5877 22.7007 55.3603 23.7798 57.2393 24.6444C61.949 26.8605 66.6542 29.0827 71.3549 31.311C74.7122 32.8027 77.6249 35.1403 79.808 38.0951C81.9487 41.0193 83.0576 44.5717 82.9604 48.1945Z" fill="#AAE6B9"/>
</g>
<g filter="url(#filter1_i_375_131)">
<path d="M6 72.3629L6.59701 72.1186C6.77112 72.5533 6.98458 72.9711 7.23472 73.3669C7.44151 73.6564 7.68818 73.9153 7.96741 74.1358C8.62038 74.6648 9.43823 74.9481 10.2785 74.9363C10.8525 74.9626 11.4185 74.7936 11.8841 74.4569C12.0788 74.3179 12.2369 74.1338 12.3448 73.9204C12.4528 73.7069 12.5073 73.4704 12.5038 73.2312C12.4966 72.9067 12.3927 72.5917 12.2052 72.3267C12.0619 72.1241 11.8768 71.9544 11.6625 71.8292C11.3213 71.6461 10.964 71.4947 10.5951 71.3769L9.06644 70.807C8.29106 70.5644 7.58112 70.1483 6.99049 69.5904C6.56378 69.12 6.33672 68.502 6.3573 67.8672C6.34214 67.4513 6.41947 67.0371 6.58371 66.6547C6.74795 66.2722 6.99502 65.931 7.30708 65.6556C7.96243 65.0753 8.81582 64.7693 9.69059 64.8008C10.1869 64.8058 10.6807 64.8726 11.1605 64.9998C11.3659 65.0552 11.5767 65.0885 11.7892 65.0993C12.1763 65.0756 12.5547 64.974 12.9018 64.8008L13.5756 67.8039L12.9786 68.0029C12.8023 67.6471 12.6013 67.304 12.3771 66.9762C12.1866 66.7177 11.9764 66.4743 11.7484 66.2481C11.2057 65.7341 10.4832 65.4533 9.73581 65.4656C9.2342 65.4485 8.74259 65.6086 8.34732 65.9179C8.17472 66.0543 8.03653 66.2293 7.94384 66.4288C7.85115 66.6283 7.80656 66.8468 7.81363 67.0667C7.8179 67.3526 7.90596 67.6309 8.06691 67.8672C8.21782 68.0344 8.39318 68.1777 8.58703 68.2924C8.9314 68.4688 9.28813 68.6199 9.6544 68.7446L11.1786 69.3009L12.3635 69.7532C12.9219 69.9467 13.4028 70.3154 13.7345 70.8044C14.0662 71.2934 14.231 71.8766 14.2043 72.4669C14.2163 72.8971 14.1301 73.3243 13.9522 73.7162C13.7743 74.108 13.5094 74.4541 13.1776 74.7283C12.4196 75.3357 11.4661 75.6461 10.4956 75.6012C9.91039 75.5992 9.32691 75.5371 8.75437 75.4157L8.33827 75.3298L8.07595 75.2936C7.98326 75.2784 7.88947 75.2709 7.79554 75.271C7.64281 75.27 7.49066 75.2898 7.34327 75.3298C7.13081 75.4061 6.92379 75.4968 6.72364 75.6012L6 72.3629Z" fill="#AAE6B9"/>
<path d="M15.087 71.9329C15.0639 71.4425 15.142 70.9525 15.3162 70.4934C15.4905 70.0344 15.7573 69.6161 16.1001 69.2645C16.4625 68.9248 16.8895 68.6614 17.3556 68.4897C17.8217 68.318 18.3175 68.2416 18.8137 68.265C19.31 68.2405 19.8061 68.3165 20.2724 68.4882C20.7387 68.66 21.1655 68.924 21.5274 69.2645C22.18 69.9975 22.5406 70.9447 22.5406 71.9261C22.5406 72.9076 22.18 73.8548 21.5274 74.5878C21.1655 74.9283 20.7387 75.1923 20.2724 75.3641C19.8061 75.5358 19.31 75.6117 18.8137 75.5873C18.3175 75.6107 17.8217 75.5343 17.3556 75.3626C16.8895 75.1909 16.4625 74.9274 16.1001 74.5878C15.7581 74.2384 15.4918 73.8224 15.3175 73.3657C15.1432 72.909 15.0647 72.4213 15.087 71.9329ZM18.8137 68.8077C18.5466 68.8099 18.2861 68.8909 18.0649 69.0406C17.8436 69.1902 17.6714 69.4019 17.57 69.6489C17.2684 70.3711 17.1132 71.1458 17.1132 71.9284C17.1132 72.711 17.2684 73.4858 17.57 74.2079C17.6663 74.459 17.8365 74.675 18.0582 74.8274C18.2798 74.9798 18.5425 75.0614 18.8115 75.0614C19.0804 75.0614 19.3431 74.9798 19.5647 74.8274C19.7864 74.675 19.9566 74.459 20.053 74.2079C20.3552 73.4875 20.5109 72.7141 20.5109 71.9329C20.5109 71.1517 20.3552 70.3783 20.053 69.658C19.9498 69.4123 19.7781 69.2014 19.5583 69.0507C19.3386 68.8999 19.0801 68.8156 18.8137 68.8077Z" fill="#AAE6B9"/>
<path d="M22.5215 69.0614L25.0316 68.2563L27.0895 73.7515L27.994 71.6349L28.3875 70.7303L28.5865 70.174C28.3352 70.1108 28.1056 69.9812 27.9217 69.7986C27.7899 69.6048 27.7277 69.372 27.7453 69.1383C27.7374 69.0187 27.7533 68.8988 27.7921 68.7854C27.8309 68.6721 27.8919 68.5676 27.9714 68.478C28.0495 68.402 28.1424 68.3431 28.2444 68.305C28.3464 68.2669 28.4552 68.2503 28.5639 68.2563C28.6851 68.2541 28.8053 68.2776 28.9168 68.3251C29.0283 68.3727 29.1284 68.4432 29.2107 68.5322C29.3884 68.7284 29.4811 68.987 29.4685 69.2514C29.4685 69.7398 29.1775 70.566 28.5956 71.7298L27.8312 73.2992L27.0036 75.33H25.7327L23.806 70.3549C23.7165 70.1017 23.5764 69.8694 23.3944 69.672C23.2423 69.5351 23.0425 69.4636 22.8381 69.473H22.6843L22.5215 69.0614Z" fill="#AAE6B9"/>
<path d="M36.7049 71.106L32.155 72.3271C32.2084 72.7158 32.3165 73.0949 32.4761 73.4533C32.6126 73.7155 32.8038 73.9454 33.0369 74.1272C33.3899 74.4083 33.8294 74.5585 34.2807 74.5523C34.5449 74.5556 34.8069 74.5032 35.0495 74.3986C35.2699 74.3169 35.476 74.2009 35.6601 74.0548C35.8889 73.8534 36.0965 73.6291 36.2797 73.3855L36.7591 73.7699L36.3069 74.4257C35.9755 74.811 35.5546 75.1092 35.0812 75.2941C34.5655 75.5086 34.0115 75.6163 33.453 75.6107C32.9987 75.6282 32.5456 75.5516 32.1222 75.3858C31.6988 75.2201 31.3143 74.9686 30.9926 74.6473C30.6737 74.3151 30.4252 73.922 30.262 73.4914C30.0988 73.0609 30.0243 72.6018 30.0428 72.1417C30.0057 71.1231 30.3732 70.1313 31.065 69.3828C31.3975 69.0279 31.8018 68.748 32.251 68.5616C32.7002 68.3752 33.184 68.2867 33.6701 68.3019C34.1245 68.274 34.5789 68.357 34.9941 68.5437C35.4093 68.7304 35.7729 69.0153 36.0536 69.3738C36.2146 69.5853 36.3455 69.8182 36.4425 70.0657C36.5573 70.405 36.645 70.7529 36.7049 71.106ZM32.4218 69.7491C32.2905 70.0136 32.1917 70.2931 32.1278 70.5813C32.061 70.9544 32.0307 71.3331 32.0374 71.712L33.9369 71.2281C34.1572 71.1955 34.3568 71.0799 34.4946 70.9051C34.6325 70.7302 34.6984 70.5092 34.6787 70.2874C34.6963 69.9306 34.5927 69.5783 34.3847 69.2878C34.2933 69.1652 34.1736 69.0666 34.0357 69.0004C33.8979 68.9342 33.746 68.9025 33.5932 68.9079C33.3401 68.9164 33.0952 68.9995 32.8892 69.1467C32.6832 69.294 32.5253 69.4989 32.4354 69.7356L32.4218 69.7491Z" fill="#AAE6B9"/>
<path d="M37.3018 69.2508V68.8664L39.5993 68.3101C39.744 68.6617 39.859 69.0248 39.9431 69.3955C40.011 69.8095 40.0397 70.229 40.029 70.6484C40.1188 70.3392 40.2306 70.0369 40.3637 69.7438C40.4809 69.5127 40.6218 69.2944 40.7843 69.0925C40.9374 68.8548 41.1431 68.6554 41.3853 68.5095C41.6276 68.3637 41.9001 68.2754 42.1818 68.2513C42.4113 68.2452 42.6339 68.3297 42.8015 68.4865C42.8831 68.5618 42.9479 68.6535 42.9915 68.7556C43.0352 68.8577 43.0567 68.9679 43.0547 69.079C43.0604 69.1908 43.0424 69.3026 43.0018 69.4071C42.9613 69.5115 42.8992 69.6062 42.8195 69.685C42.6435 69.8384 42.415 69.9178 42.1818 69.9066C41.8654 69.8844 41.5651 69.7589 41.327 69.5493C41.1641 69.7277 41.013 69.9165 40.8748 70.1147C40.7573 70.3081 40.656 70.5107 40.5717 70.7207C40.2941 71.2848 40.1399 71.9015 40.1194 72.5298V74.6103L40.7752 74.7143V75.2978H37.5234V74.7143L38.2199 74.6103V71.3584C38.2376 70.8839 38.1904 70.4091 38.0797 69.9473C38.0328 69.7677 37.934 69.6058 37.7956 69.4819C37.6573 69.358 37.4855 69.2777 37.3018 69.2508Z" fill="#AAE6B9"/>
<path d="M49.5906 71.1059L45.0225 72.3271C45.0803 72.7148 45.1883 73.0934 45.3437 73.4532C45.4819 73.7156 45.6747 73.9454 45.909 74.1271C46.2605 74.4079 46.6984 74.5582 47.1482 74.5523C47.414 74.5555 47.6774 74.5032 47.9216 74.3985C48.1402 74.3159 48.3446 74.2 48.5277 74.0548C48.7581 73.8536 48.9673 73.6293 49.1518 73.3854L49.6313 73.7698L49.179 74.4256C48.846 74.8092 48.4256 75.1071 47.9533 75.294C47.4373 75.5077 46.8836 75.6154 46.3251 75.6106C45.8708 75.6281 45.4177 75.5516 44.9943 75.3858C44.571 75.22 44.1864 74.9686 43.8647 74.6473C43.5458 74.3151 43.2974 73.9219 43.1341 73.4914C42.9709 73.0608 42.8964 72.6017 42.9149 72.1416C42.8956 71.6372 42.9759 71.1338 43.1513 70.6604C43.3267 70.187 43.5937 69.7528 43.9371 69.3827C44.2691 69.0285 44.6727 68.7489 45.1211 68.5625C45.5695 68.3761 46.0523 68.2873 46.5377 68.3018C46.9921 68.2735 47.4467 68.3563 47.8619 68.5431C48.2772 68.7299 48.6408 69.0149 48.9212 69.3737C49.0853 69.584 49.2178 69.8171 49.3147 70.0657C49.434 70.4046 49.5263 70.7524 49.5906 71.1059ZM45.3075 69.7491C45.1742 70.0127 45.0754 70.2924 45.0135 70.5813C44.9427 70.9539 44.9108 71.3328 44.9185 71.712L46.8181 71.228C47.0392 71.1965 47.2399 71.0814 47.3787 70.9064C47.5175 70.7314 47.5839 70.5098 47.5643 70.2873C47.5819 69.9305 47.4783 69.5782 47.2704 69.2878C47.1787 69.1654 47.0589 69.067 46.9212 69.0009C46.7834 68.9347 46.6316 68.9028 46.4789 68.9079C46.2217 68.9113 45.9716 68.992 45.761 69.1397C45.5505 69.2873 45.3893 69.4949 45.2984 69.7355L45.3075 69.7491Z" fill="#AAE6B9"/>
<path d="M50.2471 69.4092V68.957L53.0557 68.2559L52.9834 68.8303V74.6195L53.6437 74.7235V75.3069H50.3873V74.7235L51.1019 74.6195V70.3681C51.1271 70.1109 51.065 69.8528 50.9255 69.6354C50.7354 69.4781 50.4935 69.3975 50.2471 69.4092ZM50.93 66.1528C50.9915 65.8716 51.1329 65.6141 51.3371 65.4111C51.4244 65.3184 51.5294 65.2442 51.6459 65.1929C51.7625 65.1417 51.8882 65.1143 52.0155 65.1126C52.1527 65.111 52.2889 65.1365 52.4162 65.1877C52.5435 65.239 52.6594 65.3149 52.7572 65.4111C52.858 65.5062 52.9378 65.6213 52.9916 65.749C53.0453 65.8767 53.0718 66.0143 53.0693 66.1528V66.2388C53.0702 66.3888 53.0416 66.5375 52.9849 66.6765C52.9283 66.8154 52.8447 66.9418 52.7391 67.0483C52.6405 67.1582 52.5199 67.2459 52.385 67.3059C52.2502 67.3659 52.1043 67.3968 51.9567 67.3966C51.8053 67.3964 51.6565 67.3581 51.5237 67.2854C51.391 67.2127 51.2786 67.1079 51.1968 66.9805C51.0328 66.7793 50.9391 66.5299 50.93 66.2704V66.1528Z" fill="#AAE6B9"/>
<path d="M55.5106 75.574C55.1967 75.5264 54.8918 75.4319 54.6061 75.2936C54.5272 75.2482 54.4623 75.182 54.4184 75.1022C54.3746 75.0225 54.3534 74.9323 54.3573 74.8413C54.3672 74.6891 54.4241 74.5437 54.5201 74.4252C54.6824 74.2195 54.8675 74.0329 55.0719 73.8689C55.3297 73.6518 55.5242 73.4935 55.6418 73.4167C55.857 73.2614 56.0804 73.118 56.3111 72.987L55.9765 72.8603C55.8999 72.8336 55.8257 72.8003 55.7548 72.7609C55.3747 72.596 55.0521 72.3222 54.8277 71.9739C54.6018 71.6251 54.4823 71.2181 54.4839 70.8025C54.481 70.4616 54.5575 70.1246 54.7074 69.8185C54.8574 69.5123 55.0766 69.2453 55.3478 69.0386C55.979 68.5543 56.7599 68.3063 57.5549 68.3376H58.2966C58.4007 68.2109 58.4776 68.1295 58.5228 68.0798L58.8665 67.7225C59.0496 67.514 59.2731 67.3448 59.5234 67.2251C59.7737 67.1054 60.0456 67.0377 60.3228 67.026C60.4314 67.0204 60.5401 67.0364 60.6425 67.0729C60.7449 67.1093 60.8392 67.1656 60.9199 67.2385C60.9954 67.3068 61.0552 67.3907 61.095 67.4845C61.1349 67.5782 61.1538 67.6795 61.1505 67.7813C61.1532 67.8756 61.1361 67.9694 61.1003 68.0566C61.0644 68.1439 61.0107 68.2227 60.9425 68.2878C60.796 68.418 60.6046 68.4861 60.4088 68.4778C60.235 68.486 60.0633 68.4367 59.9203 68.3376C59.7542 68.1837 59.6191 67.9995 59.5223 67.7948C59.3929 67.8721 59.269 67.9583 59.1515 68.0526C59.0836 68.1069 58.9615 68.2335 58.7806 68.4235L59.165 68.523C59.2791 68.5476 59.39 68.5855 59.4952 68.6361C59.9187 68.7964 60.2811 69.086 60.5309 69.4637C60.7875 69.8427 60.9232 70.2906 60.9199 70.7482C60.9144 71.0825 60.8321 71.411 60.6791 71.7083C60.5262 72.0056 60.3067 72.2636 60.0379 72.4623C59.4379 72.9487 58.6843 73.2052 57.9122 73.186C57.7233 73.1849 57.5347 73.1743 57.3469 73.1543C57.1252 73.1272 56.9443 73.1091 56.8132 73.0865C56.6251 73.223 56.4482 73.3743 56.284 73.5388C56.1986 73.6248 56.1472 73.7389 56.1393 73.8599C56.1393 74.0589 56.3111 74.1584 56.6549 74.1584L57.383 74.2036L58.8077 74.2715C59.5281 74.2187 60.2497 74.3543 60.9018 74.6649C61.1087 74.7947 61.2767 74.9779 61.3881 75.1952C61.4996 75.4125 61.5503 75.6559 61.535 75.8997C61.5313 76.2325 61.4334 76.5575 61.2525 76.8369C61.0715 77.1163 60.8151 77.3386 60.5128 77.4781C59.6419 77.9041 58.677 78.1017 57.7087 78.0525C56.8009 78.0896 55.8931 77.9765 55.0222 77.7178C54.398 77.4977 54.0859 77.1766 54.0859 76.7545C54.0924 76.6563 54.1186 76.5605 54.1629 76.4727C54.2072 76.3849 54.2687 76.3069 54.3437 76.2434C54.4573 76.1296 54.585 76.0308 54.7237 75.9494C54.796 75.8725 55.081 75.7549 55.5106 75.574ZM56.6775 75.7142L56.1212 75.6735C55.9222 75.7737 55.7406 75.905 55.583 76.0625C55.478 76.1788 55.4214 76.3309 55.4247 76.4876C55.4247 76.7997 55.6327 77.0484 56.0443 77.2294C56.5945 77.4287 57.1782 77.5193 57.763 77.4962C58.3432 77.5166 58.9216 77.4197 59.4635 77.2113C59.9158 77.0213 60.1193 76.759 60.1193 76.456C60.1193 76.1529 59.8751 75.9177 59.3912 75.8725L58.663 75.8137L57.5775 75.7594L56.6775 75.7142ZM56.4378 70.608V70.7618C56.4085 71.2388 56.5286 71.7131 56.7815 72.1186C56.887 72.2661 57.0261 72.3864 57.1874 72.4693C57.3486 72.5522 57.5273 72.5955 57.7087 72.5955C57.89 72.5955 58.0687 72.5522 58.23 72.4693C58.3913 72.3864 58.5304 72.2661 58.6359 72.1186C58.8758 71.72 58.9894 71.2579 58.9615 70.7934C58.9896 70.2813 58.872 69.7716 58.6223 69.3235C58.5219 69.1569 58.3788 69.02 58.2079 68.927C58.037 68.8339 57.8444 68.7882 57.6499 68.7944C56.8418 68.8034 56.4378 69.408 56.4378 70.608Z" fill="#AAE6B9"/>
<path d="M61.7617 68.9341L64.0864 68.2783C64.1703 68.4368 64.2414 68.6016 64.299 68.7713C64.3555 68.9655 64.3978 69.1635 64.4256 69.3638L64.8282 68.9929C65.1087 68.7584 65.4309 68.5789 65.7779 68.4638C66.1297 68.3405 66.4998 68.2778 66.8725 68.2783C67.1533 68.2695 67.4328 68.3197 67.693 68.4256C67.9532 68.5316 68.1883 68.6909 68.3831 68.8934C68.5804 69.0967 68.735 69.3376 68.8375 69.6018C68.9401 69.8659 68.9886 70.148 68.9801 70.4312V74.6419L69.6494 74.7459V75.3293H66.384V74.7414L67.0805 74.6419V70.9694C67.104 70.5328 66.9762 70.1015 66.7187 69.7482C66.5975 69.5994 66.4432 69.481 66.268 69.4025C66.0929 69.3239 65.9018 69.2874 65.7101 69.296C65.4997 69.292 65.291 69.3352 65.0995 69.4226C64.8546 69.5537 64.6281 69.7164 64.4256 69.9065V74.66L65.086 74.7595V75.3474H61.8296V74.764L62.5306 74.66V70.395C62.5552 70.1209 62.4985 69.8456 62.3678 69.6035C62.2908 69.5222 62.196 69.4599 62.0908 69.4214C61.9857 69.383 61.873 69.3694 61.7617 69.3819V68.9341Z" fill="#AAE6B9"/>
<path d="M74.0576 75.3301V74.6743C74.2436 74.6996 74.4328 74.6844 74.6124 74.6298C74.7919 74.5751 74.9575 74.4823 75.0979 74.3577C75.3126 73.9708 75.4027 73.5269 75.3557 73.0868V66.5424C75.1821 66.3193 74.9798 66.12 74.7541 65.9499C74.5397 65.8263 74.303 65.7464 74.0576 65.7147V65.0906H77.2236L82.5062 72.7114V66.8318C82.5057 66.6941 82.4859 66.557 82.4474 66.4248C82.4078 66.2951 82.3499 66.1717 82.2755 66.0584C82.1898 65.9387 82.0676 65.8498 81.9273 65.8052C81.703 65.7381 81.4691 65.7091 81.2353 65.7192V65.0906H84.5324V65.7057C84.3503 65.6809 84.165 65.6951 83.9887 65.7474C83.8125 65.7996 83.6494 65.8887 83.5102 66.0087C83.3008 66.4007 83.2142 66.8467 83.2615 67.2886V75.3211H81.6785L76.111 67.2027V73.0823C76.0624 73.5239 76.1525 73.9697 76.3688 74.3577C76.5189 74.4807 76.6928 74.5714 76.8795 74.6243C77.0663 74.6772 77.2619 74.6912 77.4542 74.6653V75.3211L74.0576 75.3301Z" fill="#AAE6B9"/>
<path d="M89.2691 70.7123V70.26C89.2726 70.0555 89.2278 69.853 89.1382 69.6691C89.0485 69.4851 88.9167 69.325 88.7535 69.2017C88.5984 69.0687 88.4207 68.9645 88.2288 68.8942C87.9974 68.8238 87.756 68.7917 87.5142 68.7992C87.3786 69.5907 86.9625 69.9841 86.2569 69.9841C86.0201 69.9929 85.7878 69.9176 85.6011 69.7716C85.5185 69.7047 85.4524 69.6197 85.4077 69.5233C85.363 69.4269 85.341 69.3215 85.3433 69.2153C85.3433 68.57 86.0051 68.2459 87.3288 68.2429C88.2973 68.1983 89.2594 68.4205 90.1103 68.8851C90.4234 69.049 90.6857 69.2953 90.869 69.5974C91.0523 69.8995 91.1497 70.2459 91.1506 70.5992V73.7652C91.1506 74.2898 91.2998 74.5521 91.6028 74.5521C91.7833 74.5245 91.9458 74.427 92.0551 74.2808L92.2993 74.7104C92.131 74.9832 91.8921 75.2054 91.6079 75.3535C91.3237 75.5016 91.0047 75.5701 90.6847 75.5517C90.41 75.5533 90.1383 75.4947 89.8887 75.3798C89.7472 75.3189 89.6218 75.226 89.5223 75.1084C89.4179 74.9514 89.3428 74.7767 89.3007 74.5929L88.9027 74.914C88.2987 75.3297 87.5826 75.5521 86.8494 75.5517C86.3512 75.5692 85.8653 75.3943 85.4926 75.0632C85.3166 74.9002 85.1781 74.701 85.0867 74.4792C84.9953 74.2574 84.9533 74.0184 84.9634 73.7788C84.9634 72.832 85.491 72.1068 86.5464 71.6033C86.8924 71.4272 87.2506 71.276 87.6183 71.151C87.9575 71.056 88.5092 70.9023 89.2691 70.7123ZM89.2691 74.0863V71.2777C88.9057 71.3647 88.5514 71.4859 88.2107 71.6395C87.9607 71.7704 87.7308 71.9364 87.5278 72.1325C87.3446 72.2955 87.198 72.4955 87.0974 72.7192C86.9969 72.9428 86.9447 73.1853 86.9444 73.4305C86.9391 73.5822 86.964 73.7335 87.0175 73.8756C87.0711 74.0176 87.1523 74.1477 87.2564 74.2582C87.363 74.3689 87.4919 74.4556 87.6347 74.5125C87.7774 74.5694 87.9306 74.5953 88.0841 74.5883C88.2695 74.5924 88.4539 74.5601 88.6268 74.4933C88.8573 74.3854 89.0731 74.2486 89.2691 74.0863Z" fill="#AAE6B9"/>
<path d="M92.1621 69.1606V68.5772H93.3923V66.4469L95.2873 65.8047V68.6179H97.0286V69.1606H95.2873V73.3984C95.2873 74.2442 95.5949 74.6693 96.2145 74.6693C96.5451 74.644 96.8604 74.5195 97.1191 74.312L97.3633 74.8141C97.0511 75.0631 96.7036 75.2643 96.3321 75.4111C96.0013 75.5216 95.6542 75.5751 95.3054 75.5694C94.9247 75.5793 94.5468 75.5003 94.2019 75.3387C93.9298 75.2236 93.7049 75.0195 93.5642 74.7598C93.4322 74.417 93.3752 74.05 93.3968 73.6834V69.1606H92.1621Z" fill="#AAE6B9"/>
<path d="M97.2744 69.4047V68.9796L100.069 68.2786L100.011 68.8484V73.127C100.011 74.1356 100.395 74.6421 101.169 74.6421C101.272 74.6436 101.374 74.6361 101.476 74.6195C101.6 74.5879 101.721 74.5471 101.838 74.4974C101.985 74.4308 102.124 74.3489 102.254 74.2531C102.397 74.1191 102.521 73.967 102.625 73.8009V70.3862C102.652 70.1269 102.588 69.8664 102.444 69.649C102.268 69.4855 102.037 69.395 101.797 69.3957V68.9705L104.606 68.2695L104.52 68.8394V73.6833C104.503 73.9464 104.562 74.2089 104.692 74.4386C104.76 74.5259 104.846 74.5976 104.945 74.6491C105.043 74.7006 105.151 74.7306 105.262 74.7371V75.1215C104.778 75.1803 104.429 75.2255 104.212 75.2662C103.831 75.3462 103.453 75.4459 103.082 75.5647C102.965 75.425 102.864 75.2734 102.779 75.1125C102.71 74.9184 102.659 74.7186 102.625 74.5155L102.308 74.8185C101.757 75.3197 101.036 75.5929 100.291 75.5828C99.9962 75.6018 99.7005 75.558 99.4238 75.4543C99.147 75.3507 98.8954 75.1894 98.6855 74.9813C98.2789 74.5063 98.0743 73.8911 98.1157 73.2672V70.3952C98.1425 70.1359 98.0785 69.8754 97.9347 69.658C97.7545 69.4933 97.5186 69.4028 97.2744 69.4047Z" fill="#AAE6B9"/>
<path d="M105.79 69.2508V68.8664L108.088 68.3101C108.232 68.6617 108.347 69.0248 108.431 69.3956C108.497 69.8098 108.526 70.229 108.517 70.6484C108.607 70.3392 108.719 70.0369 108.852 69.7438C108.969 69.5127 109.11 69.2944 109.273 69.0925C109.426 68.8548 109.631 68.6554 109.874 68.5095C110.116 68.3637 110.388 68.2754 110.67 68.2513C110.899 68.2485 111.12 68.3325 111.29 68.4865C111.445 68.6474 111.531 68.8622 111.531 69.0857C111.531 69.3092 111.445 69.524 111.29 69.685C111.204 69.7619 111.104 69.821 110.995 69.8591C110.887 69.8971 110.771 69.9133 110.657 69.9066C110.34 69.8844 110.04 69.7589 109.802 69.5493C109.637 69.7265 109.486 69.9155 109.349 70.1147C109.232 70.3088 109.129 70.5113 109.042 70.7207C108.773 71.2868 108.629 71.9035 108.617 72.5298V74.6103L109.273 74.7143V75.2978H106.016V74.7143L106.717 74.6103V71.3584C106.736 70.8836 106.688 70.4084 106.572 69.9473C106.526 69.7667 106.426 69.6041 106.287 69.4801C106.148 69.3561 105.975 69.2763 105.79 69.2508Z" fill="#AAE6B9"/>
<path d="M118.073 71.106L113.51 72.3271C113.565 72.7153 113.673 73.0942 113.831 73.4533C113.969 73.7145 114.16 73.9441 114.392 74.1272C114.745 74.4083 115.184 74.5585 115.635 74.5523C115.901 74.5551 116.164 74.5027 116.409 74.3986C116.627 74.316 116.832 74.2 117.015 74.0548C117.244 73.8534 117.451 73.6291 117.635 73.3855L118.118 73.7699L117.666 74.4257C117.332 74.8099 116.91 75.1078 116.436 75.2941C115.922 75.5082 115.369 75.6159 114.812 75.6107C114.357 75.6282 113.904 75.5518 113.479 75.386C113.055 75.2202 112.67 74.9688 112.347 74.6473C112.03 74.3143 111.783 73.9209 111.62 73.4905C111.458 73.06 111.384 72.6014 111.402 72.1417C111.364 71.1238 111.73 70.132 112.42 69.3828C112.752 69.0279 113.157 68.748 113.606 68.5616C114.055 68.3752 114.539 68.2867 115.025 68.3019C115.479 68.274 115.934 68.357 116.349 68.5437C116.764 68.7304 117.128 69.0153 117.408 69.3738C117.571 69.5852 117.703 69.818 117.802 70.0657C117.919 70.4049 118.01 70.7527 118.073 71.106ZM113.79 69.7491C113.658 70.0129 113.561 70.2926 113.501 70.5813C113.43 70.9539 113.398 71.3329 113.406 71.712L115.305 71.2281C115.526 71.1955 115.725 71.0799 115.863 70.9051C116.001 70.7302 116.067 70.5092 116.047 70.2874C116.066 69.9311 115.964 69.5789 115.758 69.2878C115.665 69.1654 115.544 69.067 115.406 69.0009C115.267 68.9348 115.115 68.9029 114.962 68.9079C114.706 68.9137 114.458 68.9956 114.25 69.143C114.041 69.2905 113.881 69.4968 113.79 69.7356V69.7491Z" fill="#AAE6B9"/>
</g>
<g filter="url(#filter2_i_375_131)">
<path d="M22.2803 90.5752V82.4453H22.8917V90.5752H22.2803Z" fill="#AAE6B9"/>
<path d="M34.7953 90.5752L30.0759 83.372V90.5752H29.4932V82.4453H30.1523L34.929 89.6294V82.4453H35.5022V90.5752H34.7953Z" fill="#AAE6B9"/>
<path d="M42.0752 90.5752V82.4453H42.6866V90.5752H42.0752Z" fill="#AAE6B9"/>
<path d="M51.3892 82.9989V90.5652H50.7873V82.9989H48.2079V82.4353H53.9399V82.9989H51.3892Z" fill="#AAE6B9"/>
<path d="M59.5303 90.5752V82.4453H60.1321V90.5752H59.5303Z" fill="#AAE6B9"/>
<path d="M71.8048 90.5752L70.9832 88.4257H67.0282L66.2257 90.5752H65.6143L68.6904 82.4453H69.2732L72.3971 90.5752H71.8048ZM68.9388 83.2669L67.2097 87.8716H70.7062L68.9388 83.2669Z" fill="#AAE6B9"/>
<path d="M79.1338 82.9989V90.5652H78.5415V82.9989H75.9717V82.4353H81.7037V82.9989H79.1338Z" fill="#AAE6B9"/>
<path d="M87.2725 90.5752V82.4453H87.8743V90.5752H87.2725Z" fill="#AAE6B9"/>
<path d="M96.8056 90.5752H96.242L93.376 82.4453H93.9969L96.5763 89.7154L99.1271 82.4453H99.7576L96.8056 90.5752Z" fill="#AAE6B9"/>
<path d="M105.176 90.5752V82.4453H110.382V82.9994H105.787V85.9991H109.828V86.5628H105.787V90.002H110.382V90.5656L105.176 90.5752Z" fill="#AAE6B9"/>
</g>
<defs>
<filter id="filter0_i_375_131" x="41.2764" y="6" width="75.6904" height="51.2134" filterUnits="userSpaceOnUse" color-interpolation-filters="sRGB">
<feFlood flood-opacity="0" result="BackgroundImageFix"/>
<feBlend mode="normal" in="SourceGraphic" in2="BackgroundImageFix" result="shape"/>
<feColorMatrix in="SourceAlpha" type="matrix" values="0 0 0 0 0 0 0 0 0 0 0 0 0 0 0 0 0 0 127 0" result="hardAlpha"/>
<feOffset/>
<feGaussianBlur stdDeviation="2.60358"/>
<feComposite in2="hardAlpha" operator="arithmetic" k2="-1" k3="1"/>
<feColorMatrix type="matrix" values="0 0 0 0 0 0 0 0 0 0 0 0 0 0 0 0 0 0 0.53 0"/>
<feBlend mode="normal" in2="shape" result="effect1_innerShadow_375_131"/>
</filter>
<filter id="filter1_i_375_131" x="6" y="64.7986" width="112.118" height="13.2612" filterUnits="userSpaceOnUse" color-interpolation-filters="sRGB">
<feFlood flood-opacity="0" result="BackgroundImageFix"/>
<feBlend mode="normal" in="SourceGraphic" in2="BackgroundImageFix" result="shape"/>
<feColorMatrix in="SourceAlpha" type="matrix" values="0 0 0 0 0 0 0 0 0 0 0 0 0 0 0 0 0 0 127 0" result="hardAlpha"/>
<feOffset/>
<feGaussianBlur stdDeviation="2.60358"/>
<feComposite in2="hardAlpha" operator="arithmetic" k2="-1" k3="1"/>
<feColorMatrix type="matrix" values="0 0 0 0 0 0 0 0 0 0 0 0 0 0 0 0 0 0 0.53 0"/>
<feBlend mode="normal" in2="shape" result="effect1_innerShadow_375_131"/>
</filter>
<filter id="filter2_i_375_131" x="22.2803" y="82.4353" width="88.1017" height="8.13989" filterUnits="userSpaceOnUse" color-interpolation-filters="sRGB">
<feFlood flood-opacity="0" result="BackgroundImageFix"/>
<feBlend mode="normal" in="SourceGraphic" in2="BackgroundImageFix" result="shape"/>
<feColorMatrix in="SourceAlpha" type="matrix" values="0 0 0 0 0 0 0 0 0 0 0 0 0 0 0 0 0 0 127 0" result="hardAlpha"/>
<feOffset/>
<feGaussianBlur stdDeviation="2.60358"/>
<feComposite in2="hardAlpha" operator="arithmetic" k2="-1" k3="1"/>
<feColorMatrix type="matrix" values="0 0 0 0 0 0 0 0 0 0 0 0 0 0 0 0 0 0 0.53 0"/>
<feBlend mode="normal" in2="shape" result="effect1_innerShadow_375_131"/>
</filter>
</defs>
</svg>
