<svg width="17" height="16" viewBox="0 0 17 16" fill="none" xmlns="http://www.w3.org/2000/svg">
<path d="M11.5105 6.23242H14.5105V3.23242" stroke="#AAE6B9" stroke-linecap="round" stroke-linejoin="round"/>
<path d="M4.61084 4.11091C5.12156 3.60019 5.72788 3.19506 6.39517 2.91866C7.06246 2.64226 7.77766 2.5 8.49993 2.5C9.2222 2.5 9.9374 2.64226 10.6047 2.91866C11.272 3.19506 11.8783 3.60019 12.389 4.11091L14.5104 6.23223" stroke="#AAE6B9" stroke-linecap="round" stroke-linejoin="round"/>
<path d="M5.4895 9.76758H2.4895V12.7676" stroke="#AAE6B9" stroke-linecap="round" stroke-linejoin="round"/>
<path d="M12.389 11.8889C11.8783 12.3997 11.272 12.8048 10.6047 13.0812C9.93738 13.3576 9.22218 13.4999 8.49991 13.4999C7.77764 13.4999 7.06244 13.3576 6.39515 13.0812C5.72786 12.8048 5.12155 12.3997 4.61082 11.8889L2.4895 9.76758" stroke="#AAE6B9" stroke-linecap="round" stroke-linejoin="round"/>
</svg>
